<svg xmlns="http://www.w3.org/2000/svg" version="1.1" xmlns:xlink="http://www.w3.org/1999/xlink" xmlns:svgjs="http://svgjs.dev/svgjs" width="150" height="200" viewBox="0 0 1000 750"><rect width="1000" height="750" fill="none"></rect><g transform="matrix(0.834,0,0,0.834,82.49454809883531,279.570657282324)"><svg viewBox="0 0 396 91" data-background-color="#f6fbfc" preserveAspectRatio="xMidYMid meet" height="229" width="1000" xmlns="http://www.w3.org/2000/svg" xmlns:xlink="http://www.w3.org/1999/xlink"><g id="tight-bounds" transform="matrix(1,0,0,1,0.23999874443791214,-0.030331085480014508)"><svg viewBox="0 0 395.52 91.06066066066066" height="91.06066066066066" width="395.52"><g><svg viewBox="0 0 395.52 91.06066066066066" height="91.06066066066066" width="395.52"><g><svg viewBox="0 0 395.52 91.06066066066066" height="91.06066066066066" width="395.52"><g id="textblocktransform"><svg viewBox="0 0 395.52 91.06066066066066" height="91.06066066066066" width="395.52" id="textblock"><g><svg viewBox="0 0 395.52 91.06066066066066" height="91.06066066066066" width="395.52"><g transform="matrix(1,0,0,1,0,0)"><svg width="395.52" viewBox="-2.200000047683716 -36.20000076293945 199.77999877929688 46" height="91.06066066066066" data-palette-color="#17e8e6"><path d="M8.65-25.35L8.65 2.25Q8.65 5.8 6.78 7.8 4.9 9.8 1.45 9.8L1.45 9.8Q-0.15 9.8-2.2 9.05L-2.2 9.05-2.2 4.9Q-0.6 5.7 1 5.7L1 5.7Q3.75 5.7 3.75 2.15L3.75 2.15 3.75-25.35 8.65-25.35ZM9.25-33.1L9.25-33.1Q9.25-31.85 8.35-30.95 7.45-30.05 6.15-30.05L6.15-30.05Q4.9-30.05 4-30.93 3.1-31.8 3.1-33.1 3.1-34.4 3.98-35.3 4.85-36.2 6.15-36.2 7.45-36.2 8.35-35.3 9.25-34.4 9.25-33.1ZM35.1-22.03Q38.25-18.35 38.25-12.65 38.25-6.95 35.02-3.25 31.8 0.45 26.15 0.45L26.15 0.45Q20.55 0.45 17.35-3.2 14.15-6.85 14.15-12.45L14.15-12.45Q14.15-18.15 17.45-21.93 20.75-25.7 26.15-25.7L26.15-25.7Q31.95-25.7 35.1-22.03ZM19.25-12.6L19.25-12.6Q19.25-8.85 21.1-6.28 22.95-3.7 26.15-3.7L26.15-3.7Q29.55-3.7 31.32-6.2 33.1-8.7 33.1-12.55L33.1-12.55Q33.1-16.5 31.4-19.03 29.7-21.55 26.1-21.55L26.1-21.55Q22.85-21.55 21.05-18.98 19.25-16.4 19.25-12.6ZM48.8-3.85L48.8 0 43.85 0 43.85-35.35 48.8-35.35 48.8-21.5Q51.5-25.7 56.45-25.7L56.45-25.7Q61.25-25.7 64.3-22.1 67.35-18.5 67.35-12.55L67.35-12.55Q67.35-7.2 64.45-3.43 61.55 0.35 56.5 0.35 51.45 0.35 48.8-3.85L48.8-3.85ZM48.8-12.85L48.8-12.85Q48.8-8.35 50.8-6.15 52.8-3.95 55.7-3.95L55.7-3.95Q58.5-3.95 60.4-6.33 62.3-8.7 62.3-12.45L62.3-12.45Q62.3-16.75 60.4-19.07 58.5-21.4 55.55-21.4L55.55-21.4Q52.95-21.4 50.87-19.3 48.8-17.2 48.8-12.85ZM77.99-25.35L77.99 0 73.04 0 73.04-25.35 77.99-25.35ZM78.59-33.1L78.59-33.1Q78.59-31.85 77.69-30.95 76.79-30.05 75.49-30.05 74.19-30.05 73.32-30.93 72.44-31.8 72.44-33.1 72.44-34.4 73.32-35.3 74.19-36.2 75.49-36.2 76.79-36.2 77.69-35.3 78.59-34.4 78.59-33.1ZM106.04-17.15L106.04 0 101.14 0 101.14-16Q101.14-18.65 99.82-20.05 98.49-21.45 96.29-21.45L96.29-21.45Q93.69-21.45 91.84-19.43 89.99-17.4 89.99-13.75L89.99-13.75 89.99 0 85.09 0 85.09-25.35 89.99-25.35 89.99-21Q92.24-25.7 97.89-25.7L97.89-25.7Q101.64-25.7 103.84-23.4 106.04-21.1 106.04-17.15L106.04-17.15ZM120.84-3.65L120.84-3.65Q123.24-3.65 124.61-4.98 125.99-6.3 125.99-8.45L125.99-8.45 125.99-11.3 122.19-11.3Q119.39-11.3 117.96-10.2 116.54-9.1 116.54-7.4L116.54-7.4Q116.54-5.65 117.64-4.65 118.74-3.65 120.84-3.65ZM126.14 0L126.14-3Q124.19 0.2 119.29 0.2L119.29 0.2Q115.69 0.2 113.51-1.88 111.34-3.95 111.34-7.15L111.34-7.15Q111.34-10.8 114.09-12.83 116.84-14.85 121.79-14.85L121.79-14.85 125.99-14.85 125.99-16.3Q125.99-18.9 124.74-20.23 123.49-21.55 120.59-21.55L120.59-21.55Q116.54-21.55 113.24-19.3L113.24-19.3 113.24-24.05Q116.19-25.75 121.04-25.75L121.04-25.75Q130.99-25.75 130.99-16.1L130.99-16.1 130.99 0 126.14 0ZM150.89-5.05L150.89-0.65Q149.24 0.25 146.84 0.25L146.84 0.25Q138.99 0.25 138.99-7.7L138.99-7.7 138.99-21.55 135.04-21.55 135.04-25.35 138.99-25.35 138.99-31.55 143.94-31.55 143.94-25.35 150.59-25.35 150.59-21.55 143.94-21.55 143.94-7.6Q143.94-3.95 147.44-3.95L147.44-3.95Q149.49-3.95 150.89-5.05L150.89-5.05ZM175.83-22.03Q178.98-18.35 178.98-12.65 178.98-6.95 175.76-3.25 172.53 0.45 166.88 0.45L166.88 0.45Q161.28 0.45 158.08-3.2 154.88-6.85 154.88-12.45L154.88-12.45Q154.88-18.15 158.18-21.93 161.48-25.7 166.88-25.7L166.88-25.7Q172.68-25.7 175.83-22.03ZM159.98-12.6L159.98-12.6Q159.98-8.85 161.83-6.28 163.68-3.7 166.88-3.7L166.88-3.7Q170.28-3.7 172.06-6.2 173.83-8.7 173.83-12.55L173.83-12.55Q173.83-16.5 172.13-19.03 170.43-21.55 166.83-21.55L166.83-21.55Q163.58-21.55 161.78-18.98 159.98-16.4 159.98-12.6ZM189.38-13.5L189.38 0 184.48 0 184.48-25.35 189.38-25.35 189.38-20.9Q191.23-25.6 196.03-25.6L196.03-25.6Q196.73-25.6 197.58-25.45L197.58-25.45 197.58-20.65Q196.53-21.1 195.23-21.1L195.23-21.1Q192.68-21.1 191.03-18.85 189.38-16.6 189.38-13.5L189.38-13.5Z" opacity="1" transform="matrix(1,0,0,1,0,0)" fill="#17e8e6" class="wordmark-text-0" data-fill-palette-color="primary" id="text-0"></path></svg></g></svg></g></svg></g></svg></g></svg></g><defs></defs></svg><rect width="395.52" height="91.06066066066066" fill="none" stroke="none" visibility="hidden"></rect></g></svg></g></svg>